<?xml version="1.0" encoding="iso-8859-1"?>
<!-- Uploaded to: SVG Repo, www.svgrepo.com, Generator: SVG Repo Mixer Tools -->
<svg height="800px" width="800px" version="1.1" id="Layer_1" xmlns="http://www.w3.org/2000/svg" xmlns:xlink="http://www.w3.org/1999/xlink" 
	 viewBox="0 0 512 512" xml:space="preserve">
<path style="fill:#EB86BF;" d="M0,256.006C0,397.402,114.606,512.004,255.996,512C397.394,512.004,512,397.402,512,256.006
	C512.009,114.61,397.394,0,255.996,0C114.606,0,0,114.614,0,256.006z"/>
<path style="fill:#D670AD;" d="M512,256.005c0-10.591-0.718-21.008-1.966-31.262c-0.332-0.375-110.311-110.509-110.938-110.938
	c-0.47-0.604-0.965-1.164-1.591-1.591c-0.47-0.604-0.966-1.164-1.594-1.594c-0.995-1.278-2.294-2.291-3.881-2.703
	c-1.914-0.491-3.949-0.198-5.646,0.818l-7.146,4.29c-0.301-0.315-30.674-30.576-31.294-31.027c-1.341-1.839-3.409-3.114-5.859-3.114
	h-44.278c-4.076,0-7.38,3.305-7.38,7.379v19.829c-10.237,3.109-16.32,7.541-22.196,12.734l-17.999-10.187
	c-3.51-1.989-7.974-0.782-10.011,2.703l-22.354,38.34c-0.989,1.694-1.263,3.712-0.761,5.606c0.414,1.573,1.426,2.861,2.697,3.849
	c0.428,0.624,17.611,17.756,17.689,17.857c-0.397,5.827-0.38,11.625,0.513,17.435l-17.652,10.176
	c-1.694,0.977-2.933,2.588-3.441,4.479c-0.508,1.891-0.242,3.905,0.734,5.603l22.125,38.34c0.395,0.683,1.02,1.079,1.577,1.565
	l-2.322,6.026c-0.302-0.315-30.674-30.576-31.297-31.028c-1.341-1.839-3.408-3.111-5.858-3.111h-44.278
	c-4.075,0-7.379,3.305-7.379,7.379v19.829c-10.237,3.109-16.32,7.541-22.198,12.734l-17.998-10.187
	c-3.518-1.996-7.975-0.786-10.011,2.703L77.651,297.28c-0.987,1.694-1.261,3.712-0.759,5.606c0.415,1.573,1.426,2.862,2.697,3.849
	c0.43,0.626,17.611,17.757,17.689,17.858c-0.397,5.827-0.38,11.623,0.514,17.433l-17.653,10.177
	c-1.693,0.977-2.932,2.586-3.44,4.479c-0.509,1.89-0.242,3.906,0.734,5.601l22.125,38.341c0.572,0.991,1.367,1.742,2.255,2.348
	c0.476,0.609,102.891,103.086,103.506,103.506c0.176,0.226,0.402,0.383,0.591,0.591c16.202,3.214,32.942,4.93,50.086,4.93
	C397.394,512.004,512,397.401,512,256.005z"/>
<g>
	<path style="fill:#F6F6F6;" d="M416.012,204.609l-17.617-10.173c1.273-8.215,1.268-16.302-0.003-24.481l17.617-10.158
		c1.697-0.976,2.933-2.588,3.441-4.479c0.508-1.892,0.241-3.909-0.735-5.603l-22.139-38.34c-0.991-1.715-2.627-2.958-4.544-3.456
		c-1.914-0.49-3.949-0.198-5.647,0.818l-16.828,10.103c-5.253-4.014-11.894-7.909-20.093-11.787V86.267
		c0-4.076-3.305-7.379-7.379-7.379h-44.278c-4.076,0-7.379,3.305-7.379,7.379v19.829c-10.237,3.109-16.32,7.541-22.196,12.734
		l-17.999-10.187c-3.509-1.989-7.974-0.782-10.011,2.703l-22.355,38.34c-0.988,1.694-1.261,3.712-0.761,5.606
		c0.501,1.895,1.737,3.514,3.434,4.497l17.513,10.155c-1.286,8.249-1.301,16.338-0.047,24.489l-17.653,10.176
		c-1.694,0.976-2.933,2.588-3.441,4.479c-0.508,1.892-0.241,3.906,0.735,5.603l22.125,38.34c1.29,2.233,3.587,3.409,5.989,3.548
		l-16.417,9.857c-5.264-4.018-11.905-7.913-20.093-11.787v-20.788c0-4.076-3.305-7.379-7.379-7.379h-44.278
		c-4.076,0-7.379,3.305-7.379,7.379v19.829c-10.237,3.109-16.32,7.541-22.196,12.734l-17.999-10.187
		c-3.517-1.997-7.974-0.785-10.011,2.703L77.652,297.28c-0.988,1.694-1.261,3.712-0.761,5.606c0.501,1.895,1.737,3.514,3.434,4.497
		l17.513,10.155c-1.286,8.249-1.301,16.338-0.047,24.489l-17.653,10.176c-1.694,0.976-2.933,2.588-3.441,4.479
		c-0.508,1.891-0.241,3.906,0.735,5.603l22.125,38.34c2.011,3.485,6.447,4.717,9.974,2.764l18.442-10.237
		c5.823,5.149,11.894,9.625,22.24,12.756v19.826c0,4.076,3.305,7.379,7.379,7.379h44.278c4.076,0,7.379-3.305,7.379-7.379v-20.788
		c8.187-3.874,14.835-7.769,20.111-11.787l16.806,10.1c1.697,1.017,3.737,1.312,5.647,0.821c1.917-0.497,3.556-1.741,4.547-3.456
		l22.139-38.34c2.036-3.527,0.829-8.043-2.703-10.082l-17.617-10.173c1.271-8.215,1.268-16.302-0.003-24.481l17.617-10.158
		c1.697-0.976,2.933-2.588,3.441-4.479c0.508-1.891,0.241-3.909-0.735-5.603l-22.139-38.34c-0.991-1.715-2.627-2.958-4.544-3.456
		c-0.47-0.118-0.949-0.049-1.428-0.076l17.798-9.879c5.823,5.149,11.894,9.625,22.24,12.756v19.826c0,4.076,3.305,7.379,7.379,7.379
		h44.278c4.076,0,7.379-3.305,7.379-7.379v-20.788c8.197-3.877,14.846-7.773,20.114-11.787l16.802,10.1
		c1.697,1.02,3.737,1.305,5.647,0.821c1.917-0.497,3.556-1.741,4.547-3.456l22.139-38.34
		C420.75,211.164,419.543,206.649,416.012,204.609z M262.026,298.292l-15.758,9.084c-2.793,1.611-4.215,4.847-3.517,7.993
		c2.147,9.675,2.151,19.113,0.011,28.855c-0.692,3.142,0.732,6.367,3.517,7.978l15.747,9.091l-14.691,25.447l-14.853-8.929
		c-2.803-1.69-6.374-1.333-8.782,0.876c-5.308,4.853-13.661,9.826-24.82,14.773c-2.67,1.182-4.389,3.827-4.389,6.746v18.146h-29.519
		v-18.146c0-3.459-2.403-6.458-5.783-7.203c-12.629-2.803-17.502-7.264-25.195-14.309c-2.342-2.144-5.78-2.555-8.565-1.012
		l-16.716,9.279l-14.804-25.659l15.787-9.099c2.789-1.607,4.215-4.839,3.52-7.985c-2.126-9.614-2.112-19.055,0.044-28.863
		c0.692-3.138-0.727-6.359-3.506-7.971l-15.625-9.059l14.961-25.655l16.302,9.225c2.793,1.582,6.508,0.965,8.868-1.207
		c7.383-6.788,12.262-11.275,24.939-14.096c3.376-0.753,5.776-3.744,5.776-7.203v-18.146h29.519v18.146
		c0,2.918,1.718,5.564,4.389,6.746c11.159,4.947,19.498,9.917,24.781,14.763c2.407,2.212,5.985,2.576,8.788,0.89l14.882-8.937
		L262.026,298.292z M387.549,239.147l-14.853-8.929c-2.807-1.694-6.388-1.326-8.785,0.883c-5.29,4.843-13.638,9.808-24.816,14.767
		c-2.67,1.182-4.389,3.827-4.389,6.746v18.146h-29.519v-18.146c0-3.459-2.403-6.458-5.783-7.203
		c-12.629-2.803-17.502-7.264-25.195-14.309c-2.338-2.147-5.78-2.562-8.565-1.012l-16.716,9.279l-14.806-25.66l15.787-9.099
		c2.789-1.607,4.215-4.839,3.52-7.985c-2.126-9.614-2.112-19.055,0.044-28.863c0.692-3.138-0.727-6.359-3.506-7.97l-15.625-9.059
		l14.961-25.655l16.302,9.225c2.785,1.574,6.508,0.962,8.868-1.207c7.383-6.788,12.262-11.275,24.939-14.096
		c3.376-0.753,5.776-3.744,5.776-7.203V93.647h29.519v18.146c0,2.918,1.718,5.564,4.389,6.746
		c11.178,4.958,19.516,9.923,24.777,14.759c2.403,2.209,5.989,2.58,8.793,0.894l14.882-8.937l14.694,25.443l-15.758,9.084
		c-2.793,1.611-4.215,4.847-3.517,7.993c2.147,9.675,2.151,19.113,0.011,28.855c-0.692,3.142,0.732,6.367,3.517,7.978l15.747,9.091
		L387.549,239.147z"/>
	<path style="fill:#F6F6F6;" d="M318.173,145.305c-20.345,0-36.898,16.554-36.898,36.898s16.554,36.898,36.898,36.898
		c20.345,0,36.898-16.554,36.898-36.898S338.517,145.305,318.173,145.305z M318.173,204.342c-12.208,0-22.139-9.931-22.139-22.139
		c0-12.208,9.931-22.139,22.139-22.139s22.139,9.931,22.139,22.139C340.313,194.412,330.382,204.342,318.173,204.342z"/>
	<path style="fill:#F6F6F6;" d="M177.959,292.898c-20.345,0-36.898,16.554-36.898,36.898c0,20.345,16.554,36.898,36.898,36.898
		s36.898-16.554,36.898-36.898C214.858,309.453,198.304,292.898,177.959,292.898z M177.959,351.936
		c-12.208,0-22.139-9.931-22.139-22.139c0-12.208,9.931-22.139,22.139-22.139s22.139,9.931,22.139,22.139
		C200.098,342.005,190.167,351.936,177.959,351.936z"/>
</g>
</svg>