<?xml version="1.0" encoding="utf-8"?>
<!-- Generator: Adobe Illustrator 27.5.0, SVG Export Plug-In . SVG Version: 6.00 Build 0)  -->
<svg version="1.1" xmlns="http://www.w3.org/2000/svg" xmlns:xlink="http://www.w3.org/1999/xlink" x="0px" y="0px"
	 viewBox="0 0 500 500" style="enable-background:new 0 0 500 500;" xml:space="preserve">
<g id="Background_Simple">
	<g>
		<path style="fill:#92E3A9;" d="M461.65,383.466c27.811-62.521,29.683-145.823,10.484-212.608
			c-16.53-57.501-53.313-101.357-95.799-127.473C327.041,13.084,268.284,4.066,215.386,23.19
			c-13.918,5.032-27.464,9.639-40.583,17.902c-53.783,33.874-43.405,117.347-62.275,146.384
			c-15.876,24.43-46.233,17.226-65.372,35.946c-51.643,50.515-51.779,178.202,7.813,218.115
			C118.188,483.88,392.765,538.32,461.65,383.466z"/>
		<path style="opacity:0.8;fill:#FFFFFF;" d="M461.65,383.466c27.811-62.521,29.683-145.823,10.484-212.608
			c-16.53-57.501-53.313-101.357-95.799-127.473C327.041,13.084,268.284,4.066,215.386,23.19
			c-13.918,5.032-27.464,9.639-40.583,17.902c-53.783,33.874-43.405,117.347-62.275,146.384
			c-15.876,24.43-46.233,17.226-65.372,35.946c-51.643,50.515-51.779,178.202,7.813,218.115
			C118.188,483.88,392.765,538.32,461.65,383.466z"/>
	</g>
</g>
<g id="Bricks">
	<g style="opacity:0.1;">
		<g>
			<path d="M432.209,247.299h-31.46c-0.91,0-1.648-0.738-1.648-1.648v-10.772c0-0.91,0.738-1.648,1.648-1.648h31.46
				c0.91,0,1.648,0.738,1.648,1.648v10.772C433.857,246.561,433.119,247.299,432.209,247.299z"/>
			<path d="M432.209,281.805h-31.46c-0.91,0-1.648-0.738-1.648-1.648v-10.772c0-0.91,0.738-1.648,1.648-1.648h31.46
				c0.91,0,1.648,0.738,1.648,1.648v10.772C433.857,281.067,433.119,281.805,432.209,281.805z"/>
			<path d="M450.219,264.303h-31.46c-0.91,0-1.648-0.738-1.648-1.648v-10.772c0-0.91,0.738-1.648,1.648-1.648h31.46
				c0.91,0,1.648,0.738,1.648,1.648v10.772C451.867,263.565,451.129,264.303,450.219,264.303z"/>
			<path d="M413.191,264.303h-31.46c-0.91,0-1.648-0.738-1.648-1.648v-10.772c0-0.91,0.738-1.648,1.648-1.648h31.46
				c0.91,0,1.648,0.738,1.648,1.648v10.772C414.839,263.565,414.101,264.303,413.191,264.303z"/>
		</g>
		<g>
			<path d="M454.031,110.564h-31.46c-0.91,0-1.648-0.738-1.648-1.648V98.144c0-0.91,0.738-1.648,1.648-1.648h31.46
				c0.91,0,1.648,0.738,1.648,1.648v10.772C455.679,109.826,454.941,110.564,454.031,110.564z"/>
			<path d="M454.031,145.07h-31.46c-0.91,0-1.648-0.738-1.648-1.648V132.65c0-0.91,0.738-1.648,1.648-1.648h31.46
				c0.91,0,1.648,0.738,1.648,1.648v10.772C455.679,144.331,454.941,145.07,454.031,145.07z"/>
			<path d="M472.041,127.568h-31.46c-0.91,0-1.648-0.738-1.648-1.648v-10.772c0-0.91,0.738-1.648,1.648-1.648h31.46
				c0.91,0,1.648,0.738,1.648,1.648v10.772C473.689,126.83,472.951,127.568,472.041,127.568z"/>
			<path d="M435.013,127.568h-31.46c-0.91,0-1.648-0.738-1.648-1.648v-10.772c0-0.91,0.738-1.648,1.648-1.648h31.46
				c0.91,0,1.648,0.738,1.648,1.648v10.772C436.661,126.83,435.923,127.568,435.013,127.568z"/>
		</g>
		<g>
			<path d="M73.214,318.124h-31.46c-0.91,0-1.648-0.738-1.648-1.648v-10.772c0-0.91,0.738-1.648,1.648-1.648h31.46
				c0.91,0,1.648,0.738,1.648,1.648v10.772C74.862,317.386,74.124,318.124,73.214,318.124z"/>
			<path d="M73.214,352.63h-31.46c-0.91,0-1.648-0.738-1.648-1.648V340.21c0-0.91,0.738-1.648,1.648-1.648h31.46
				c0.91,0,1.648,0.738,1.648,1.648v10.772C74.862,351.892,74.124,352.63,73.214,352.63z"/>
			<path d="M91.224,335.128h-31.46c-0.91,0-1.648-0.738-1.648-1.648v-10.772c0-0.91,0.738-1.648,1.648-1.648h31.46
				c0.91,0,1.648,0.738,1.648,1.648v10.772C92.873,334.391,92.135,335.128,91.224,335.128z"/>
			<path d="M54.196,335.128h-31.46c-0.91,0-1.648-0.738-1.648-1.648v-10.772c0-0.91,0.738-1.648,1.648-1.648h31.46
				c0.91,0,1.648,0.738,1.648,1.648v10.772C55.844,334.391,55.106,335.128,54.196,335.128z"/>
		</g>
		<g>
			<path d="M194.882,153.648h-31.46c-0.91,0-1.648-0.738-1.648-1.648v-10.772c0-0.91,0.738-1.648,1.648-1.648h31.46
				c0.91,0,1.648,0.738,1.648,1.648v10.772C196.53,152.91,195.792,153.648,194.882,153.648z"/>
			<path d="M194.882,188.153h-31.46c-0.91,0-1.648-0.738-1.648-1.648v-10.772c0-0.91,0.738-1.648,1.648-1.648h31.46
				c0.91,0,1.648,0.738,1.648,1.648v10.772C196.53,187.415,195.792,188.153,194.882,188.153z"/>
			<path d="M212.892,170.652h-31.46c-0.91,0-1.648-0.738-1.648-1.648v-10.772c0-0.91,0.738-1.648,1.648-1.648h31.46
				c0.91,0,1.648,0.738,1.648,1.648v10.772C214.54,169.914,213.802,170.652,212.892,170.652z"/>
			<path d="M175.864,170.652h-31.46c-0.91,0-1.648-0.738-1.648-1.648v-10.772c0-0.91,0.738-1.648,1.648-1.648h31.46
				c0.91,0,1.648,0.738,1.648,1.648v10.772C177.512,169.914,176.774,170.652,175.864,170.652z"/>
		</g>
		<g>
			<path d="M116.023,153.648h-31.46c-0.91,0-1.648-0.738-1.648-1.648v-10.772c0-0.91,0.738-1.648,1.648-1.648h31.46
				c0.91,0,1.648,0.738,1.648,1.648v10.772C117.671,152.91,116.933,153.648,116.023,153.648z"/>
			<path d="M116.023,188.153h-31.46c-0.91,0-1.648-0.738-1.648-1.648v-10.772c0-0.91,0.738-1.648,1.648-1.648h31.46
				c0.91,0,1.648,0.738,1.648,1.648v10.772C117.671,187.415,116.933,188.153,116.023,188.153z"/>
			<path d="M134.033,170.652h-31.46c-0.91,0-1.648-0.738-1.648-1.648v-10.772c0-0.91,0.738-1.648,1.648-1.648h31.46
				c0.91,0,1.648,0.738,1.648,1.648v10.772C135.682,169.914,134.944,170.652,134.033,170.652z"/>
			<path d="M97.005,170.652h-31.46c-0.91,0-1.648-0.738-1.648-1.648v-10.772c0-0.91,0.738-1.648,1.648-1.648h31.46
				c0.91,0,1.648,0.738,1.648,1.648v10.772C98.653,169.914,97.915,170.652,97.005,170.652z"/>
		</g>
		<g>
			<path d="M151.322,79.57h-31.46c-0.91,0-1.648-0.738-1.648-1.648V67.15c0-0.91,0.738-1.648,1.648-1.648h31.46
				c0.91,0,1.648,0.738,1.648,1.648v10.772C152.97,78.832,152.232,79.57,151.322,79.57z"/>
			<path d="M114.507,79.57h-31.46c-0.91,0-1.648-0.738-1.648-1.648V67.15c0-0.91,0.738-1.648,1.648-1.648h31.46
				c0.91,0,1.648,0.738,1.648,1.648v10.772C116.155,78.832,115.417,79.57,114.507,79.57z"/>
			<path d="M151.322,114.076h-31.46c-0.91,0-1.648-0.738-1.648-1.648v-10.772c0-0.91,0.738-1.648,1.648-1.648h31.46
				c0.91,0,1.648,0.738,1.648,1.648v10.772C152.97,113.338,152.232,114.076,151.322,114.076z"/>
			<path d="M169.332,96.574h-31.46c-0.91,0-1.648-0.738-1.648-1.648V84.154c0-0.91,0.738-1.648,1.648-1.648h31.46
				c0.91,0,1.648,0.738,1.648,1.648v10.772C170.98,95.836,170.242,96.574,169.332,96.574z"/>
			<path d="M132.304,96.574h-31.46c-0.91,0-1.648-0.738-1.648-1.648V84.154c0-0.91,0.738-1.648,1.648-1.648h31.46
				c0.91,0,1.648,0.738,1.648,1.648v10.772C133.952,95.836,133.214,96.574,132.304,96.574z"/>
		</g>
		<g>
			<path d="M292.516,199.735h-31.46c-0.91,0-1.648-0.738-1.648-1.648v-10.772c0-0.91,0.738-1.648,1.648-1.648h31.46
				c0.91,0,1.648,0.738,1.648,1.648v10.772C294.165,198.997,293.427,199.735,292.516,199.735z"/>
			<path d="M292.516,234.241h-31.46c-0.91,0-1.648-0.738-1.648-1.648v-10.772c0-0.91,0.738-1.648,1.648-1.648h31.46
				c0.91,0,1.648,0.738,1.648,1.648v10.772C294.165,233.503,293.427,234.241,292.516,234.241z"/>
			<path d="M310.527,216.74h-31.46c-0.91,0-1.648-0.738-1.648-1.648V204.32c0-0.91,0.738-1.648,1.648-1.648h31.46
				c0.91,0,1.648,0.738,1.648,1.648v10.772C312.175,216.002,311.437,216.74,310.527,216.74z"/>
			<path d="M273.498,216.74h-31.46c-0.91,0-1.648-0.738-1.648-1.648V204.32c0-0.91,0.738-1.648,1.648-1.648h31.46
				c0.91,0,1.648,0.738,1.648,1.648v10.772C275.146,216.002,274.409,216.74,273.498,216.74z"/>
		</g>
		<g>
			<path d="M367.62,199.735h-31.46c-0.91,0-1.648-0.738-1.648-1.648v-10.772c0-0.91,0.738-1.648,1.648-1.648h31.46
				c0.91,0,1.648,0.738,1.648,1.648v10.772C369.268,198.997,368.53,199.735,367.62,199.735z"/>
			<path d="M330.805,199.735h-31.46c-0.91,0-1.648-0.738-1.648-1.648v-10.772c0-0.91,0.738-1.648,1.648-1.648h31.46
				c0.91,0,1.648,0.738,1.648,1.648v10.772C332.453,198.997,331.715,199.735,330.805,199.735z"/>
			<path d="M367.62,234.241h-31.46c-0.91,0-1.648-0.738-1.648-1.648v-10.772c0-0.91,0.738-1.648,1.648-1.648h31.46
				c0.91,0,1.648,0.738,1.648,1.648v10.772C369.268,233.503,368.53,234.241,367.62,234.241z"/>
			<path d="M385.63,216.74h-31.46c-0.91,0-1.648-0.738-1.648-1.648V204.32c0-0.91,0.738-1.648,1.648-1.648h31.46
				c0.91,0,1.648,0.738,1.648,1.648v10.772C387.279,216.002,386.54,216.74,385.63,216.74z"/>
			<path d="M348.602,216.74h-31.46c-0.91,0-1.648-0.738-1.648-1.648V204.32c0-0.91,0.738-1.648,1.648-1.648h31.46
				c0.91,0,1.648,0.738,1.648,1.648v10.772C350.25,216.002,349.512,216.74,348.602,216.74z"/>
		</g>
		<g>
			<path d="M393.155,317.648h-31.46c-0.91,0-1.648-0.738-1.648-1.648v-10.772c0-0.91,0.738-1.648,1.648-1.648h31.46
				c0.91,0,1.648,0.738,1.648,1.648V316C394.803,316.91,394.065,317.648,393.155,317.648z"/>
			<path d="M393.155,352.154h-31.46c-0.91,0-1.648-0.738-1.648-1.648v-10.772c0-0.91,0.738-1.648,1.648-1.648h31.46
				c0.91,0,1.648,0.738,1.648,1.648v10.772C394.803,351.416,394.065,352.154,393.155,352.154z"/>
			<path d="M411.165,334.652h-31.46c-0.91,0-1.648-0.738-1.648-1.648v-10.772c0-0.91,0.738-1.648,1.648-1.648h31.46
				c0.91,0,1.648,0.738,1.648,1.648v10.772C412.814,333.914,412.076,334.652,411.165,334.652z"/>
			<path d="M374.137,334.652h-31.46c-0.91,0-1.648-0.738-1.648-1.648v-10.772c0-0.91,0.738-1.648,1.648-1.648h31.46
				c0.91,0,1.648,0.738,1.648,1.648v10.772C375.785,333.914,375.047,334.652,374.137,334.652z"/>
		</g>
		<g>
			<path d="M468.259,317.648h-31.46c-0.91,0-1.648-0.738-1.648-1.648v-10.772c0-0.91,0.738-1.648,1.648-1.648h31.46
				c0.91,0,1.648,0.738,1.648,1.648V316C469.907,316.91,469.169,317.648,468.259,317.648z"/>
			<path d="M431.443,317.648h-31.46c-0.91,0-1.648-0.738-1.648-1.648v-10.772c0-0.91,0.738-1.648,1.648-1.648h31.46
				c0.91,0,1.648,0.738,1.648,1.648V316C433.092,316.91,432.354,317.648,431.443,317.648z"/>
			<path d="M468.259,352.154h-31.46c-0.91,0-1.648-0.738-1.648-1.648v-10.772c0-0.91,0.738-1.648,1.648-1.648h31.46
				c0.91,0,1.648,0.738,1.648,1.648v10.772C469.907,351.416,469.169,352.154,468.259,352.154z"/>
			<path d="M486.269,334.652h-31.46c-0.91,0-1.648-0.738-1.648-1.648v-10.772c0-0.91,0.738-1.648,1.648-1.648h31.46
				c0.91,0,1.648,0.738,1.648,1.648v10.772C487.917,333.914,487.179,334.652,486.269,334.652z"/>
			<path d="M449.24,334.652h-31.46c-0.91,0-1.648-0.738-1.648-1.648v-10.772c0-0.91,0.738-1.648,1.648-1.648h31.46
				c0.91,0,1.648,0.738,1.648,1.648v10.772C450.889,333.914,450.151,334.652,449.24,334.652z"/>
		</g>
		<g>
			<path d="M334.844,392h-31.46c-0.91,0-1.648-0.738-1.648-1.648v-10.772c0-0.91,0.738-1.648,1.648-1.648h31.46
				c0.91,0,1.648,0.738,1.648,1.648v10.772C336.492,391.263,335.754,392,334.844,392z"/>
			<path d="M334.844,426.506h-31.46c-0.91,0-1.648-0.738-1.648-1.648v-10.772c0-0.91,0.738-1.648,1.648-1.648h31.46
				c0.91,0,1.648,0.738,1.648,1.648v10.772C336.492,425.768,335.754,426.506,334.844,426.506z"/>
			<path d="M352.854,409.005h-31.46c-0.91,0-1.648-0.738-1.648-1.648v-10.772c0-0.91,0.738-1.648,1.648-1.648h31.46
				c0.91,0,1.648,0.738,1.648,1.648v10.772C354.502,408.267,353.764,409.005,352.854,409.005z"/>
			<path d="M315.826,409.005h-31.46c-0.91,0-1.648-0.738-1.648-1.648v-10.772c0-0.91,0.738-1.648,1.648-1.648h31.46
				c0.91,0,1.648,0.738,1.648,1.648v10.772C317.474,408.267,316.736,409.005,315.826,409.005z"/>
		</g>
		<g>
			<path d="M226.904,79.57h-31.46c-0.91,0-1.648-0.738-1.648-1.648V67.15c0-0.91,0.738-1.648,1.648-1.648h31.46
				c0.91,0,1.648,0.738,1.648,1.648v10.772C228.553,78.832,227.815,79.57,226.904,79.57z"/>
			<path d="M226.904,114.076h-31.46c-0.91,0-1.648-0.738-1.648-1.648v-10.772c0-0.91,0.738-1.648,1.648-1.648h31.46
				c0.91,0,1.648,0.738,1.648,1.648v10.772C228.553,113.338,227.815,114.076,226.904,114.076z"/>
			<path d="M244.915,96.574h-31.46c-0.91,0-1.648-0.738-1.648-1.648V84.154c0-0.91,0.738-1.648,1.648-1.648h31.46
				c0.91,0,1.648,0.738,1.648,1.648v10.772C246.563,95.836,245.825,96.574,244.915,96.574z"/>
			<path d="M207.886,96.574h-31.46c-0.91,0-1.648-0.738-1.648-1.648V84.154c0-0.91,0.738-1.648,1.648-1.648h31.46
				c0.91,0,1.648,0.738,1.648,1.648v10.772C209.535,95.836,208.797,96.574,207.886,96.574z"/>
		</g>
	</g>
</g>
<g id="Plant">
	<g>
		<g>
			<g>
				<path style="fill:none;stroke:#263238;stroke-width:3;stroke-linecap:round;stroke-linejoin:round;stroke-miterlimit:10;" d="
					M108.025,227.955c0,0,0.679,84.877,0.679,107.285c0,22.408-0.679,119.82-0.679,119.82"/>
				<polygon style="fill:#92E3A9;" points="158.952,249.684 137.902,232.029 196.977,238.819 144.692,221.844 198.335,212.338 
					137.902,212.338 184.754,177.029 131.791,203.51 162.347,151.226 121.606,198.078 135.865,129.497 109.383,193.325 
					106.667,122.028 101.235,194.683 72.34,130.498 92.408,200.794 49.189,153.649 86.976,211.659 33.48,173.493 83.581,221.844 
					26.865,190.856 78.828,225.918 31.826,219.795 77.47,232.708 40.921,238.812 78.828,237.461 56.42,252.4 109.383,238.14 				"/>
				<polygon style="opacity:0.3;fill:#FFFFFF;" points="158.952,249.684 137.902,232.029 196.977,238.819 144.692,221.844 
					198.335,212.338 137.902,212.338 184.754,177.029 131.791,203.51 162.347,151.226 121.606,198.078 135.865,129.497 
					109.383,193.325 106.667,122.028 101.235,194.683 72.34,130.498 92.408,200.794 49.189,153.649 86.976,211.659 33.48,173.493 
					83.581,221.844 26.865,190.856 78.828,225.918 31.826,219.795 77.47,232.708 40.921,238.812 78.828,237.461 56.42,252.4 
					109.383,238.14 				"/>
				<polygon style="fill:#92E3A9;" points="136.308,433.855 115.258,416.201 174.333,422.991 122.048,406.016 175.691,396.509 
					115.258,396.509 162.11,361.2 109.147,387.682 139.703,335.398 98.962,382.25 113.221,313.669 86.739,377.497 84.023,306.2 
					78.591,378.855 49.696,314.669 69.764,384.966 26.545,337.82 64.332,395.83 10.836,357.664 60.937,406.016 4.221,375.027 
					56.184,410.09 9.182,403.966 54.826,416.88 18.277,422.983 56.184,421.633 33.776,436.571 86.739,422.312 				"/>
				<polygon style="opacity:0.3;fill:#FFFFFF;" points="136.308,433.855 115.258,416.201 174.333,422.991 122.048,406.016 
					175.691,396.509 115.258,396.509 162.11,361.2 109.147,387.682 139.703,335.398 98.962,382.25 113.221,313.669 86.739,377.497 
					84.023,306.2 78.591,378.855 49.696,314.669 69.764,384.966 26.545,337.82 64.332,395.83 10.836,357.664 60.937,406.016 
					4.221,375.027 56.184,410.09 9.182,403.966 54.826,416.88 18.277,422.983 56.184,421.633 33.776,436.571 86.739,422.312 				"/>
			</g>
			<path style="fill:none;stroke:#263238;stroke-width:3;stroke-linecap:round;stroke-linejoin:round;stroke-miterlimit:10;" d="
				M87.655,313.511c0,0-2.037,17.655-0.679,24.445c1.358,6.79,2.037,14.938,2.037,23.766c0,8.827,0.679,9.506,0.679,15.617
				c0,6.111-0.679,58.03-0.679,62.783c0,4.753,0,8.148,0,10.864c0,2.716,0,3.915,0,3.915"/>
			<path style="fill:none;stroke:#263238;stroke-width:3;stroke-linecap:round;stroke-linejoin:round;stroke-miterlimit:10;" d="
				M89.692,370.549c0,0,2.716-14.938,5.432-21.729c2.716-6.79,4.753-4.753,5.432-12.901c0.679-8.148,0.679-11.543,2.037-14.259
				c1.358-2.716,2.716-7.469,2.716-7.469l1.358-5.432"/>
			<polygon style="fill:#92E3A9;" points="137.902,331.166 116.853,313.511 175.927,320.302 123.643,303.326 177.285,293.82 
				116.853,293.82 163.705,258.511 110.742,284.993 141.297,232.708 100.556,279.56 114.816,210.98 88.334,274.807 85.618,203.51 
				80.186,276.165 59.136,210.301 71.358,282.276 34.013,228.634 65.926,293.141 16.943,261.136 62.531,303.326 11.982,282.633 
				57.778,307.4 10.328,303.304 56.42,314.19 24.385,321.494 57.778,318.943 35.37,333.882 88.334,319.622 			"/>
			<polygon style="opacity:0.3;fill:#FFFFFF;" points="137.902,331.166 116.853,313.511 175.927,320.302 123.643,303.326 
				177.285,293.82 116.853,293.82 163.705,258.511 110.742,284.993 141.297,232.708 100.556,279.56 114.816,210.98 88.334,274.807 
				85.618,203.51 80.186,276.165 59.136,210.301 71.358,282.276 34.013,228.634 65.926,293.141 16.943,261.136 62.531,303.326 
				11.982,282.633 57.778,307.4 10.328,303.304 56.42,314.19 24.385,321.494 57.778,318.943 35.37,333.882 88.334,319.622 			"/>
		</g>
	</g>
</g>
<g id="Table">
	<line style="fill:none;stroke:#263238;stroke-miterlimit:10;" x1="12.04" y1="456.418" x2="490.709" y2="456.418"/>
</g>
<g id="Ladles">
	<path style="opacity:0.3;" d="M475.425,73.442H318.733c-2.691,0-4.882,2.19-4.882,4.882v1.439c0,2.692,2.19,4.883,4.882,4.883
		h29.677l1.721,51.846c-4.574,1.398-7.854,6.971-7.854,13.457c0,7.053,4.251,20.604,10.066,20.604
		c5.814,0,10.065-13.551,10.065-20.604c0-6.392-3.223-11.949-7.717-13.416l2.005-51.888h17.913l1.765,70.796
		c-4.575,1.396-7.856,6.972-7.856,13.458c0,7.053,4.251,20.604,10.065,20.604c5.814,0,10.065-13.551,10.065-20.604
		c0-6.394-3.225-11.953-7.722-13.417l2.058-70.837h17.844l1.786,85.373c-4.577,1.396-7.858,6.971-7.858,13.459
		c0,7.053,4.251,20.604,10.066,20.604c5.814,0,10.065-13.551,10.065-20.604c0-6.395-3.225-11.955-7.723-13.418l2.083-85.414h17.862
		l1.68,56.945c-7.728,1.054-13.499,7.634-13.499,15.491c0,8.624,7.016,15.639,15.639,15.639c8.624,0,15.64-7.016,15.64-15.639
		c0-7.637-5.598-14.186-13.094-15.416l1.96-57.02h17.932l1.721,51.846c-4.574,1.398-7.853,6.971-7.853,13.457
		c0,7.053,4.251,20.604,10.065,20.604c5.814,0,10.065-13.551,10.065-20.604c0-6.392-3.223-11.949-7.717-13.416l2.005-51.888h13.77
		c2.692,0,4.883-2.19,4.883-4.883v-1.439C480.308,75.633,478.117,73.442,475.425,73.442z M318.733,83.646
		c-2.141,0-3.882-1.742-3.882-3.883v-1.439c0-2.141,1.741-3.882,3.882-3.882h31.432c-0.082,0.073-0.169,0.133-0.247,0.215
		c-1.141,1.197-1.767,3.087-1.673,5.047l0.131,3.942H318.733z M356.735,83.646l0.159-4.112c0.049-1.924-0.593-3.761-1.716-4.914
		c-0.066-0.068-0.141-0.116-0.209-0.178h21.439c-0.082,0.073-0.169,0.133-0.247,0.215c-1.142,1.197-1.768,3.086-1.675,5.043
		l0.098,3.946H356.735z M383.014,83.646l0.12-4.112c0.049-1.924-0.593-3.761-1.716-4.914c-0.066-0.068-0.141-0.116-0.209-0.178
		h21.437c-0.082,0.074-0.169,0.133-0.247,0.215c-1.141,1.197-1.767,3.086-1.673,5.04l0.083,3.948H383.014z M409.273,83.646
		l0.1-4.112c0.049-1.924-0.593-3.761-1.716-4.914c-0.066-0.068-0.141-0.116-0.209-0.178h21.438
		c-0.082,0.073-0.169,0.133-0.247,0.215c-1.142,1.197-1.767,3.086-1.675,5.045l0.116,3.944H409.273z M435.471,83.646l0.141-4.111
		c0.05-1.924-0.591-3.761-1.715-4.915c-0.066-0.068-0.141-0.116-0.21-0.178h21.436c-0.082,0.073-0.169,0.133-0.247,0.215
		c-1.141,1.197-1.767,3.087-1.673,5.047l0.131,3.942H435.471z M479.308,79.763c0,2.141-1.742,3.883-3.883,3.883h-13.731l0.159-4.112
		c0.049-1.924-0.593-3.761-1.716-4.914c-0.066-0.068-0.141-0.116-0.209-0.178h15.497c2.141,0,3.883,1.742,3.883,3.882V79.763z"/>
</g>
<g id="Character">
	<g>
		<path style="fill:#92E3A9;stroke:#263238;stroke-linecap:round;stroke-linejoin:round;stroke-miterlimit:10;" d="M336.924,455.883
			L315.668,319.49c0,0,39.536,29.583,42.853,28.753c3.318-0.829,11.612-16.588,11.612-16.588s3.041-10.229,0.276-22.118
			c-2.765-11.888-11.059-47.553-11.059-47.553l-21.565-2.212l-1.106,9.4c0,0-22.947-44.512-24.33-47
			c-1.382-2.488-17.141,0.553-22.947,0.553s-22.118-4.977-22.118-4.977l-59.718-0.829c0,0-36.771,5.529-38.706,9.124
			c-1.935,3.594-4.977,18.247-5.253,19.353c-0.276,1.106-32.347,39.536-40.365,51.424c-8.018,11.888-7.741,42.853-0.829,45.894
			c6.912,3.041,23.5-1.935,27.924-6.912c4.423-4.977,14.93-16.312,18.8-23.224c3.871-6.912,4.977-13.271,7.188-16.035
			c2.212-2.765,8.294-10.782,8.294-10.782s7.415,42.935,5.637,85.908c-1.182,28.569-6.577,80.622-6.041,85.043"/>
		<path style="fill:none;stroke:#263238;stroke-linecap:round;stroke-linejoin:round;stroke-miterlimit:10;" d="M238.809,241.801
			c0,0-12.165,1.382-12.718,3.594c-0.553,2.212,15.297,197.579,15.297,197.579"/>
		<g>
			<g>
				<circle style="fill:#263238;" cx="237.019" cy="252.284" r="2.276"/>
				<path style="fill:#263238;" d="M273.823,247.731c0,1.257-1.019,2.277-2.277,2.277c-1.257,0-2.276-1.019-2.276-2.277
					c0-1.257,1.019-2.276,2.276-2.276C272.803,245.455,273.823,246.474,273.823,247.731z"/>
			</g>
			<g>
				<path style="fill:#263238;" d="M241.192,284.915c0,1.257-1.019,2.276-2.277,2.276c-1.257,0-2.277-1.019-2.277-2.276
					c0-1.257,1.019-2.277,2.277-2.277C240.173,282.638,241.192,283.657,241.192,284.915z"/>
			</g>
			<g>
				<path style="fill:#263238;" d="M243.089,317.545c0,1.257-1.019,2.276-2.277,2.276c-1.257,0-2.276-1.019-2.276-2.276
					c0-1.257,1.019-2.277,2.276-2.277C242.07,315.268,243.089,316.288,243.089,317.545z"/>
			</g>
			<g>
				<path style="fill:#263238;" d="M244.986,350.175c0,1.257-1.019,2.276-2.277,2.276c-1.257,0-2.277-1.019-2.277-2.276
					c0-1.257,1.019-2.277,2.277-2.277C243.967,347.899,244.986,348.918,244.986,350.175z"/>
				<path style="fill:#263238;" d="M279.514,345.622c0,1.257-1.019,2.276-2.277,2.276s-2.276-1.019-2.276-2.276
					c0-1.257,1.019-2.277,2.276-2.277S279.514,344.365,279.514,345.622z"/>
			</g>
			<g>
				<path style="fill:#263238;" d="M246.884,382.806c0,1.257-1.019,2.277-2.276,2.277c-1.257,0-2.277-1.019-2.277-2.277
					s1.019-2.276,2.277-2.276C245.864,380.529,246.884,381.548,246.884,382.806z"/>
				<path style="fill:#263238;" d="M281.411,378.253c0,1.257-1.019,2.277-2.277,2.277c-1.257,0-2.277-1.019-2.277-2.277
					c0-1.257,1.019-2.277,2.277-2.277C280.392,375.976,281.411,376.995,281.411,378.253z"/>
			</g>
		</g>
		<g>
			<path style="fill:none;stroke:#263238;stroke-linecap:round;stroke-linejoin:round;stroke-miterlimit:10;" d="M141.458,311.037
				c0,0,6.593,5.651,8.79,16.639"/>
			<path style="fill:none;stroke:#263238;stroke-linecap:round;stroke-linejoin:round;stroke-miterlimit:10;" d="M142.399,307.898
				c0,0,10.988,2.825,15.383,8.79"/>
		</g>
		<g>
			<path style="fill:#92E3A9;stroke:#263238;stroke-linecap:round;stroke-linejoin:round;stroke-miterlimit:10;" d="
				M125.214,281.757c0,0-9.963,11.353-15.292,17.841c-5.329,6.488-10.658,10.195-9.5,14.597c1.159,4.402-0.927,19.694,11.817,25.95
				c12.743,6.256,20.158,5.097,22.243,3.707c2.085-1.39,12.28-22.938,12.28-22.938s-2.085-15.524-4.866-19.926
				C139.116,296.585,125.214,281.757,125.214,281.757z"/>
			<path style="fill:#263238;stroke:#263238;stroke-linecap:round;stroke-linejoin:round;stroke-miterlimit:10;" d="
				M125.214,281.757c0,0-9.963,11.353-15.292,17.841c-1.514,1.843-3.023,3.457-4.388,4.931c1.393,4.331,4.693,11.136,12.483,17.696
				c6.937,5.842,15.831,9.335,22.534,11.313c3.124-6.1,6.21-12.623,6.21-12.623s-2.085-15.524-4.866-19.926
				C139.116,296.585,125.214,281.757,125.214,281.757z"/>
			<path style="fill:none;stroke:#263238;stroke-linecap:round;stroke-linejoin:round;stroke-miterlimit:10;" d="M125.214,281.757
				l-6.671,13.404c0,0,5.938,15.807,16.035,21.012c0,0,5.232,3.12,12.183,4.741c0,0-2.085-15.524-4.866-19.926
				C139.116,296.585,125.214,281.757,125.214,281.757z"/>
		</g>
		<g>
			<path style="fill:#263238;stroke:#263238;stroke-linecap:round;stroke-linejoin:round;stroke-miterlimit:10;" d="
				M113.211,232.384c0,0-2.232,2.232-2.728,5.208c-0.496,2.976,7.192,9.92,7.192,9.92l3.224-2.976c0,0-5.208-3.72-6.448-6.696
				c-1.24-2.976,1.736-6.696,1.736-6.696S114.451,230.648,113.211,232.384z"/>
			<path style="fill:#C4C4C4;stroke:#263238;stroke-linecap:round;stroke-linejoin:round;stroke-miterlimit:10;" d="
				M113.211,232.384c0,0,84.322,64.234,87.547,66.714l5.208,0.248c0,0-88.291-67.706-89.779-68.202
				C114.699,230.648,113.211,232.384,113.211,232.384z"/>
			<path style="fill:#C4C4C4;stroke:#263238;stroke-linecap:round;stroke-linejoin:round;stroke-miterlimit:10;" d="
				M200.758,299.098c0,0,10.664,10.416,24.305,13.392c13.64,2.976,21.689-8.017,23.809-11.408c3.72-5.952,4.464-12.648,4.464-12.648
				L200.758,299.098z"/>
		</g>
		<g>
			<path style="fill:#FFFFFF;stroke:#263238;stroke-linecap:round;stroke-linejoin:round;stroke-miterlimit:10;" d="
				M134.579,252.584l-0.555,1.852l-7.739,25.796l-7.741,14.93c0,0,0.553,8.294,4.7,13.271c4.147,4.977,11.335,7.741,11.335,7.741
				l9.677-19.077c0,0,6.635-0.829,9.676-3.041s12.441-4.977,12.718-7.188c0.277-2.212-0.553-4.147-0.553-4.147
				s1.106-3.594,0.829-5.253c-0.277-1.659-0.277-1.659-0.277-1.659s0-2.765-0.276-4.424c-0.277-1.659-0.277-1.659-0.277-1.659
				s0.553-3.041-0.553-6.082c-1.106-3.041-2.212-3.318-4.7-4.147c-2.488-0.829-17.141-4.976-19.077-5.529
				C141.767,253.966,137.979,250.525,134.579,252.584z"/>
			<path style="fill:none;stroke:#263238;stroke-linecap:round;stroke-linejoin:round;stroke-miterlimit:10;" d="M137.136,263.807
				c0,0,0.916-0.229,2.406,0.573c1.489,0.802,2.52,1.718,13.862,2.52c11.341,0.802,12.693,2.824,12.693,2.824"/>
			<path style="fill:none;stroke:#263238;stroke-linecap:round;stroke-linejoin:round;stroke-miterlimit:10;" d="M143.367,275.569
				c4.373,0.343,9.764,0.725,12.098,0.725c4.239,0,10.683-0.974,11.184-0.487"/>
			<path style="fill:none;stroke:#263238;stroke-linecap:round;stroke-linejoin:round;stroke-miterlimit:10;" d="M136.907,275.034
				c0,0,1.357,0.119,3.36,0.285"/>
			
				<line style="fill:none;stroke:#263238;stroke-linecap:round;stroke-linejoin:round;stroke-miterlimit:10;" x1="144.812" y1="288.209" x2="166.097" y2="282.719"/>
			<path style="fill:none;stroke:#263238;stroke-linecap:round;stroke-linejoin:round;stroke-miterlimit:10;" d="M136.334,293.593
				c1.948,0.573,6.186,2.291,6.186,2.291"/>
			<path style="fill:none;stroke:#263238;stroke-linecap:round;stroke-linejoin:round;stroke-miterlimit:10;" d="M128.544,279.961
				c0,0-0.229,2.291-0.115,4.124c0.115,1.833,2.52,4.812,2.52,4.812s0.859,1.031,1.962,2.134"/>
			<path style="fill:#FFFFFF;stroke:#263238;stroke-linecap:round;stroke-linejoin:round;stroke-miterlimit:10;" d="
				M141.767,253.966c0,0,0.868-5.28,2.586-5.853s6.186-1.26,6.645-0.229c0.458,1.031,4.468,6.645,4.812,8.019
				c0.344,1.375,0,1.948,0,1.948L141.767,253.966z"/>
		</g>
		
			<line style="fill:none;stroke:#263238;stroke-linecap:round;stroke-linejoin:round;stroke-miterlimit:10;" x1="178.326" y1="253.062" x2="177.115" y2="246.77"/>
		
			<line style="fill:none;stroke:#263238;stroke-linecap:round;stroke-linejoin:round;stroke-miterlimit:10;" x1="184.62" y1="285.76" x2="179.478" y2="259.047"/>
		<path style="fill:none;stroke:#263238;stroke-linecap:round;stroke-linejoin:round;stroke-miterlimit:10;" d="M315.668,319.49
			c0,0-3.474-42.136-3.474-52.099c0-9.963-0.695-32.901-0.695-32.901"/>
		
			<line style="fill:none;stroke:#263238;stroke-linecap:round;stroke-linejoin:round;stroke-miterlimit:10;" x1="318.689" y1="270.617" x2="314.048" y2="284.074"/>
		
			<line style="fill:none;stroke:#263238;stroke-linecap:round;stroke-linejoin:round;stroke-miterlimit:10;" x1="320.999" y1="263.916" x2="319.832" y2="267.301"/>
		<path style="fill:none;stroke:#263238;stroke-linecap:round;stroke-linejoin:round;stroke-miterlimit:10;" d="M325.93,312.366
			c-0.667,4.009-0.874,6.886-0.297,7.621c2.549,3.244,7.646,5.792,7.646,5.792"/>
		<path style="fill:none;stroke:#263238;stroke-linecap:round;stroke-linejoin:round;stroke-miterlimit:10;" d="M335.828,271.794
			c0,0-5.775,20.371-8.772,34.675"/>
		<path style="fill:none;stroke:#263238;stroke-linecap:round;stroke-linejoin:round;stroke-miterlimit:10;" d="M323.78,320.914
			c0,0,7.414,9.5,12.048,10.195"/>
		<path style="fill:#263238;stroke:#263238;stroke-linecap:round;stroke-linejoin:round;stroke-miterlimit:10;" d="M336.986,266.696
			c0,0,5.329,11.353,10.89,13.67c5.561,2.317,14.134-8.109,14.134-8.109l4.402,20.158c0,0-5.329,7.414-9.5,10.195
			c-4.171,2.78-12.048,1.622-15.524-3.475c-3.475-5.097-7.878-17.609-7.878-17.609L336.986,266.696z"/>
		<g>
			<path style="fill:#FFFFFF;stroke:#263238;stroke-linecap:round;stroke-linejoin:round;stroke-miterlimit:10;" d="
				M336.986,266.696c0,0,0.463-19.463-0.232-24.792s-6.256-31.743-6.951-34.755s0.927-7.878,1.854-11.122
				c0.927-3.244-0.232-8.804,1.39-9.036c1.622-0.232,3.939,1.854,4.402,5.792c0.463,3.939,0.232,4.866,0.232,6.719
				c0,1.854,0,3.475,0,3.475l7.878-1.854c0,0,19.926,11.817,20.158,13.902s-10.195,20.389-10.89,22.011
				c-0.695,1.622,7.183,35.218,7.183,35.218s-4.866,7.878-10.195,10.658c-5.329,2.78-8.341-1.158-10.195-5.329
				C339.767,273.415,336.986,266.696,336.986,266.696z"/>
			<g>
				<g>
					<path style="fill:#FFFFFF;stroke:#263238;stroke-linecap:round;stroke-linejoin:round;stroke-miterlimit:10;" d="
						M353.437,200.431c0,0-3.012-11.353-3.939-14.365c-0.927-3.012-1.158-13.438-3.012-12.975s-3.012,1.854-3.244,9.731
						s1.39,15.292,1.39,15.292L353.437,200.431z"/>
					<path style="fill:#FFFFFF;stroke:#263238;stroke-linecap:round;stroke-linejoin:round;stroke-miterlimit:10;" d="
						M359.924,206.455c0,0-1.159-3.707-3.475-4.634c-2.317-0.927-11.817-6.256-12.975-6.256c-1.158,0-5.329,9.731-6.719,11.585
						c-1.39,1.854,0.232,3.244,1.39,3.244s7.646-7.414,7.646-7.414l3.475,0.695L359.924,206.455z"/>
					<path style="fill:#FFFFFF;stroke:#263238;stroke-linecap:round;stroke-linejoin:round;stroke-miterlimit:10;" d="
						M363.863,210.857c0,0-0.927-2.085-1.854-3.244c-0.927-1.158-12.512-6.719-13.67-6.256c-1.159,0.463-4.402,9.036-6.024,12.048
						c-1.622,3.012-1.854,4.866-0.232,4.402c1.622-0.463,5.793-2.78,7.414-4.402c1.622-1.622,5.561-6.024,5.561-6.024
						L363.863,210.857z"/>
				</g>
				<path style="fill:#FFFFFF;stroke:#263238;stroke-linecap:round;stroke-linejoin:round;stroke-miterlimit:10;" d="
					M365.717,215.028c0,0-0.927-3.244-1.853-4.171c-0.927-0.927-6.951-5.097-8.109-6.256c-1.159-1.158-3.012,2.549-3.939,3.707
					c-0.927,1.159-5.097,6.951-5.793,8.573s1.39,2.78,2.78,2.317c1.39-0.463,7.878-6.256,7.878-6.256"/>
			</g>
			<path style="fill:none;stroke:#263238;stroke-linecap:round;stroke-linejoin:round;stroke-miterlimit:10;" d="M342.315,229.393
				c0,0-0.232,4.866,2.085,7.414c2.317,2.549,6.951,3.475,6.951,3.475"/>
		</g>
		<g>
			<g>
				<path style="fill:#92E3A9;stroke:#263238;stroke-linecap:round;stroke-linejoin:round;stroke-miterlimit:10;" d="
					M288.298,118.494c0,0,11.888-6.082,12.718-20.183c0.829-14.1-13.824-31.518-33.73-37.324s-43.406-1.382-55.847,6.359
					c-12.441,7.741-26.541,19.63-33.453,37.6s-5.529,37.877,4.7,42.024c10.229,4.147,27.647,6.359,35.665,4.7
					c8.018-1.659,19.077-16.588,32.347-20.459c13.271-3.871,25.435-6.082,28.753-7.465
					C282.768,122.365,288.298,118.494,288.298,118.494z"/>
				<g>
					<path style="fill:none;stroke:#263238;stroke-linecap:round;stroke-linejoin:round;stroke-miterlimit:10;" d="M201.265,132.691
						c0,0-9.641,9.133-14.208,9.895"/>
					<path style="fill:none;stroke:#263238;stroke-linecap:round;stroke-linejoin:round;stroke-miterlimit:10;" d="M181.476,119.245
						c0,0,12.939,6.343,19.028,4.82"/>
					<path style="fill:none;stroke:#263238;stroke-linecap:round;stroke-linejoin:round;stroke-miterlimit:10;" d="M195.937,97.426
						c0,0,11.417,8.119,19.535,5.328"/>
					<path style="fill:none;stroke:#263238;stroke-linecap:round;stroke-linejoin:round;stroke-miterlimit:10;" d="M245.663,75.1
						c0,0-1.522,15.476-6.85,17.759"/>
					<path style="fill:none;stroke:#263238;stroke-linecap:round;stroke-linejoin:round;stroke-miterlimit:10;" d="M262.915,94.128
						c0,0,9.894-4.82,12.685-10.148"/>
					<path style="fill:none;stroke:#263238;stroke-linecap:round;stroke-linejoin:round;stroke-miterlimit:10;" d="M297.673,103.515
						c0,0-12.432,4.567-18.267,2.283"/>
				</g>
			</g>
			<path style="fill:#263238;stroke:#263238;stroke-linecap:round;stroke-linejoin:round;stroke-miterlimit:10;" d="
				M208.674,152.501c0,0-1.659,6.359-2.488,11.612c-0.829,5.253,14.93,12.718,14.93,12.718s7.188,2.488-7.188,7.741
				c-14.376,5.253-25.988,11.612-32.071,22.947c-6.082,11.335-1.935,24.882,6.359,29.859c0,0-0.829-3.871,0-6.635
				c0.829-2.765,1.935-4.7,1.935-4.7s0.277,10.506,7.465,14.93c7.188,4.423,16.035,13.824,13.271,17.418
				c-2.765,3.594-2.765,3.594-2.765,3.594s9.124,1.659,15.482-3.871c6.359-5.529,6.359-18.247,3.594-27.371
				c-2.765-9.124-8.294-16.035-4.977-24.882c3.318-8.847,13.547-20.459,12.994-27.094c-0.553-6.635-23.5-37.047-23.5-37.047
				L208.674,152.501z"/>
			<g>
				<path style="fill:#FFFFFF;stroke:#263238;stroke-linecap:round;stroke-linejoin:round;stroke-miterlimit:10;" d="
					M280.003,109.094c0,0,8.294,17.971,8.847,24.606c0.553,6.635-1.382,9.124-0.553,11.059s5.253,14.653,3.041,22.947
					c-2.212,8.294-10.782,25.712-13.547,27.647c-2.765,1.935-19.353-1.935-19.353-1.935s0.553,10.782,1.659,15.206
					s3.871,10.23,3.871,10.23s-1.106,7.188-5.806,12.441c-4.7,5.253-8.294,7.465-11.888,7.741
					c-3.594,0.276-20.459-17.418-20.735-19.353c-0.277-1.935,2.212-18.8,2.212-29.03c0-10.229-4.147-23.5-4.147-23.5
					s-7.741-5.529-9.677-11.888c-1.935-6.359-2.212-13.547-2.212-13.547l-0.829-7.465c0,0,13.824-22.118,36.218-27.094
					C269.498,102.183,280.003,109.094,280.003,109.094z"/>
				<path style="fill:none;stroke:#263238;stroke-linecap:round;stroke-linejoin:round;stroke-miterlimit:10;" d="M272.815,129.553
					c0,0-4.424,3.594-0.83,10.782"/>
				<path style="fill:none;stroke:#263238;stroke-linecap:round;stroke-linejoin:round;stroke-miterlimit:10;" d="M281.386,156.371
					c0,0-3.871,3.041-6.635,3.318"/>
				<path style="fill:none;stroke:#263238;stroke-linecap:round;stroke-linejoin:round;stroke-miterlimit:10;" d="M281.109,164.389
					c0,0-9.124,4.977-21.288-1.382c0,0,6.359,9.953,11.888,9.953C277.239,172.96,281.109,164.389,281.109,164.389z"/>
				<path style="fill:none;stroke:#263238;stroke-linecap:round;stroke-linejoin:round;stroke-miterlimit:10;" d="M262.586,128.724
					c0,0-6.635-2.765-12.441-1.659c-5.806,1.106-8.018,6.082-8.018,6.082"/>
				<path style="fill:none;stroke:#263238;stroke-linecap:round;stroke-linejoin:round;stroke-miterlimit:10;" d="M274.751,127.618
					c0,0,8.571-4.424,11.335,1.935"/>
				<path style="fill:#263238;" d="M254.005,142.195c0.202,2.205-0.682,4.088-1.974,4.207c-1.292,0.119-2.504-1.573-2.706-3.777
					c-0.202-2.205,0.682-4.088,1.974-4.207C252.591,138.299,253.803,139.99,254.005,142.195z"/>
				<path style="fill:#263238;" d="M278.888,140.536c0.202,2.205-0.681,4.088-1.974,4.207c-1.292,0.119-2.504-1.573-2.706-3.777
					c-0.202-2.205,0.681-4.088,1.974-4.207C277.474,136.64,278.686,138.331,278.888,140.536z"/>
				<path style="fill:#263238;stroke:#263238;stroke-linecap:round;stroke-linejoin:round;stroke-miterlimit:10;" d="
					M217.244,135.359c0,0,7.465,11.335,8.571,8.847c1.106-2.488,0.829-13.547,0.829-14.377
					C226.644,129,221.668,130.659,217.244,135.359z"/>
				<polygon style="fill:#263238;stroke:#263238;stroke-linecap:round;stroke-linejoin:round;stroke-miterlimit:10;" points="
					258.439,193.419 244.339,189.824 258.439,201.16 				"/>
				<path style="fill:none;stroke:#263238;stroke-linecap:round;stroke-linejoin:round;stroke-miterlimit:10;" d="M223.603,167.154
					c0,0,3.041,1.382,4.423-2.212"/>
			</g>
			<path style="fill:#92E3A9;stroke:#263238;stroke-linecap:round;stroke-linejoin:round;stroke-miterlimit:10;" d="
				M208.674,152.501c0,0,9.4-18.247,30.688-29.03s44.61-4.48,44.61-4.48s-6.734-17.362-8.393-19.85
				c-1.659-2.488-20.735-11.059-44.236-4.147c-23.5,6.912-31.518,31.241-31.241,33.453
				C200.38,130.659,208.674,152.501,208.674,152.501z"/>
			<path style="fill:#263238;stroke:#263238;stroke-linecap:round;stroke-linejoin:round;stroke-miterlimit:10;" d="
				M224.433,206.413c0,0,3.594,5.253,10.506,9.953c6.912,4.7,10.506,5.253,11.335,8.294c0.829,3.041,3.871,16.035,0.829,16.312
				c-3.041,0.277-14.376-0.277-19.906-10.23C221.668,220.789,221.391,212.219,224.433,206.413z"/>
			<path style="fill:#263238;stroke:#263238;stroke-linecap:round;stroke-linejoin:round;stroke-miterlimit:10;" d="
				M254.015,221.342c0,0-1.382,16.035,0.553,16.588c1.935,0.553,11.335-6.359,14.376-11.335s2.212-7.741,1.382-10.506
				c-0.829-2.765-2.212-7.741-4.147-6.912C264.245,210.007,260.374,218.301,254.015,221.342z"/>
		</g>
	</g>
	<g>
		<g>
			<path style="fill:none;stroke:#263238;stroke-miterlimit:10;" d="M266.908,308.284c0.146-0.893,0.232-1.909,0.232-3.1
				c0-8.128-4-8.128-4-16.256c0-8.134,4-8.134,4-16.267s-4-8.134-4-16.267"/>
			<path style="fill:none;stroke:#263238;stroke-miterlimit:10;" d="M263.141,321.446c0-4.682,1.327-6.668,2.452-9.063"/>
		</g>
		<g>
			<path style="fill:none;stroke:#263238;stroke-miterlimit:10;" d="M282.157,269.043c-0.954-4.766-3.674-5.943-3.674-12.649"/>
			<path style="fill:none;stroke:#263238;stroke-miterlimit:10;" d="M278.483,321.446c0-8.131,4-8.131,4-16.261
				c0-8.128-4-8.128-4-16.256c0-6.1,2.25-7.625,3.375-11.438"/>
		</g>
		<g>
			<path style="fill:none;stroke:#263238;stroke-miterlimit:10;" d="M295.682,281.086c1.045-2.135,2.143-4.164,2.143-8.425
				c0-8.134-4-8.134-4-16.267"/>
			<path style="fill:none;stroke:#263238;stroke-miterlimit:10;" d="M293.826,321.446c0-8.131,4-8.131,4-16.261
				c0-8.128-4-8.128-4-16.256c0-1.936,0.227-3.411,0.572-4.645"/>
		</g>
	</g>
</g>
<g id="Cooking_Pots">
	<g>
		<g>
			<path style="fill:#263238;" d="M179.319,350.417c-0.608,0-1.224-0.139-1.803-0.434l-21.735-11.04
				c-1.964-0.997-2.748-3.398-1.75-5.363c0.998-1.966,3.399-2.75,5.363-1.75l21.735,11.04c1.965,0.997,2.748,3.398,1.75,5.363
				C182.176,349.619,180.774,350.417,179.319,350.417z"/>
		</g>
		<g>
			<path style="fill:#263238;" d="M315.518,350.417c0.608,0,1.224-0.139,1.803-0.434l21.735-11.04
				c1.965-0.997,2.748-3.398,1.75-5.363c-0.999-1.966-3.399-2.75-5.363-1.75l-21.735,11.04c-1.965,0.997-2.748,3.398-1.75,5.363
				C312.661,349.619,314.063,350.417,315.518,350.417z"/>
		</g>
		<path style="fill:#A6A6A6;stroke:#263238;stroke-miterlimit:10;" d="M302.896,456.418h-112.94c-7.91,0-14.323-6.413-14.323-14.323
			V327.913H317.22v114.182C317.22,450.006,310.807,456.418,302.896,456.418z"/>
		<g>
			<path style="fill:#263238;stroke:#263238;stroke-miterlimit:10;" d="M195.715,440.093v-112.18h-13.163v112.18
				c0,9.016,7.309,16.325,16.325,16.325h13.163C203.024,456.418,195.715,449.109,195.715,440.093z"/>
			<path style="fill:#263238;stroke:#263238;stroke-miterlimit:10;" d="M297.138,327.913v112.18c0,9.016-7.309,16.325-16.325,16.325
				h13.163c9.016,0,16.325-7.309,16.325-16.325v-112.18H297.138z"/>
		</g>
		<path style="fill:#FFFFFF;" d="M279.631,429.54c-3.398-1.525-5.478-5.017-5.549-8.741c-0.297-15.505,3.101-79.271,6.324-84.546
			c3.795-6.21,11.385,60.198,10.35,75.723C289.928,424.396,286.199,432.488,279.631,429.54z"/>
		<path style="fill:#263238;" d="M317.964,330.211H174.889c-1.17,0-2.119-0.949-2.119-2.119V327.5c0-1.17,0.949-2.119,2.119-2.119
			h143.075c1.17,0,2.119,0.949,2.119,2.119v0.592C320.083,329.263,319.134,330.211,317.964,330.211z"/>
	</g>
	<g>
		<circle style="fill:#263238;stroke:#263238;stroke-miterlimit:10;" cx="412.759" cy="356.669" r="8.121"/>
		<path style="fill:#A6A6A6;stroke:#263238;stroke-miterlimit:10;" d="M459.926,372.137c-0.9-8.594-21.666-15.468-47.167-15.468
			c-25.501,0-46.267,6.874-47.167,15.468H459.926z"/>
		<g>
			<g>
				<path style="fill:#263238;" d="M367.99,386.241c-0.402,0-0.811-0.092-1.194-0.287l-14.389-7.309
					c-1.301-0.66-1.819-2.25-1.159-3.55c0.661-1.301,2.25-1.821,3.551-1.158l14.389,7.309c1.301,0.66,1.819,2.25,1.159,3.55
					C369.881,385.713,368.953,386.241,367.99,386.241z"/>
			</g>
			<g>
				<path style="fill:#263238;" d="M458.158,386.241c0.402,0,0.811-0.092,1.194-0.287l14.389-7.309
					c1.301-0.66,1.819-2.25,1.159-3.55c-0.661-1.301-2.25-1.821-3.551-1.158l-14.389,7.309c-1.301,0.66-1.819,2.25-1.159,3.55
					C456.267,385.713,457.196,386.241,458.158,386.241z"/>
			</g>
			<path style="fill:#A6A6A6;stroke:#263238;stroke-miterlimit:10;" d="M444.962,456.418h-65.09c-7.91,0-14.323-6.413-14.323-14.323
				v-70.752h93.736v70.752C459.285,450.006,452.872,456.418,444.962,456.418z"/>
			<g>
				<path style="fill:#263238;stroke:#263238;stroke-miterlimit:10;" d="M378.844,445.611v-74.268h-8.714v74.268
					c0,5.969,4.839,10.808,10.808,10.808h8.714C383.683,456.418,378.844,451.579,378.844,445.611z"/>
				<path style="fill:#263238;stroke:#263238;stroke-miterlimit:10;" d="M445.99,371.343v74.268c0,5.969-4.839,10.808-10.808,10.808
					h8.714c5.969,0,10.808-4.839,10.808-10.808v-74.268H445.99z"/>
			</g>
			<path style="fill:#FFFFFF;" d="M434.4,438.624c-2.25-1.009-3.627-3.322-3.674-5.787c-0.196-10.265,2.053-52.48,4.187-55.972
				c2.512-4.111,7.538,39.853,6.852,50.131C441.217,435.218,438.749,440.575,434.4,438.624z"/>
			<path style="fill:#263238;" d="M459.582,372.865h-94.329c-0.883,0-1.599-0.716-1.599-1.599v0c0-0.883,0.716-1.599,1.599-1.599
				h94.329c0.883,0,1.599,0.716,1.599,1.599v0C461.181,372.149,460.465,372.865,459.582,372.865z"/>
		</g>
		<path style="fill:#FFFFFF;" d="M453.235,368.805c0,0-10.363-9.897-33.097-9.43c0,0,11.988,2.32,18.562,8.894L453.235,368.805z"/>
	</g>
</g>
</svg>
