<?xml version="1.0" ?><svg data-name="레이어 1" id="레이어_1" viewBox="0 0 48 48" xmlns="http://www.w3.org/2000/svg"><path d="M6.05,24.11l6.82-7.44a1,1,0,1,0-1.47-1.35L3.92,23.48a1,1,0,0,0,0,1.4l9.2,8.84a1,1,0,0,0,.69.28,1,1,0,0,0,.72-.31,1,1,0,0,0,0-1.41Z"/><path d="M26.65,11.62a1,1,0,0,0-1.2.74L20,35.49a1,1,0,0,0,.74,1.2.91.91,0,0,0,.23,0A1,1,0,0,0,22,36l5.44-23.13A1,1,0,0,0,26.65,11.62Z"/><path d="M43.39,23.36l-7.48-8.17a1,1,0,0,0-1.48,1.35L41.26,24l-8.5,8.16a1,1,0,1,0,1.39,1.45l9.2-8.85A1,1,0,0,0,43.39,23.36Z"/></svg>