<?xml version="1.0" encoding="utf-8"?>
<!-- Uploaded to: SVG Repo, www.svgrepo.com, Generator: SVG Repo Mixer Tools -->
<svg width="800px" height="800px" viewBox="0 0 1024 1024" class="icon"  version="1.1" xmlns="http://www.w3.org/2000/svg"><path d="M817.49564 230.915833H207.052138c-13.220407 0-23.933319 15.667493-23.933319 34.990258v656.730286c0 19.323788 10.712912 34.989233 23.933319 34.989233h610.443502c13.217336 0 23.933319-15.666469 23.93332-34.989233V265.907114c0-19.323788-10.715984-34.991281-23.93332-34.991281z" fill="#DCE5F7" /><path d="M815.546163 253.387045c1.305454 1.675076 3.41261 5.990753 3.41261 12.520069V922.636377c0 6.529317-2.107156 10.843969-3.41261 12.519046H209.000592c-1.305454-1.675076-3.410562-5.989729-3.410562-12.519046V265.907114c0-6.530341 2.106132-10.844993 3.411586-12.520069h606.544547m1.949477-22.471212H207.052138c-13.220407 0-23.933319 15.667493-23.933319 34.991281V922.636377c0 19.322764 10.712912 34.989233 23.933319 34.989233h610.442479c13.217336 0 23.934343-15.666469 23.934343-34.989233V265.907114c0-19.323788-10.715984-34.991281-23.93332-34.991281z" fill="#4E6DC4" /><path d="M702.991473 332.188331H321.556306c-13.872622 0-25.114883 11.201305-25.114883 25.017614v469.538452c0 13.815285 11.242261 25.01659 25.114883 25.01659h381.435167c13.869551 0 25.114883-11.200282 25.114883-25.01659V357.205945c0.001024-13.815285-11.245333-25.017614-25.114883-25.017614z" fill="#FFFFFF" /><path d="M702.991473 354.659542c1.459037 0 2.644696 1.142656 2.644696 2.546403v469.538452c0 1.403747-1.186683 2.545379-2.644696 2.545379H321.556306c-1.458013 0-2.643672-1.141632-2.643672-2.545379V357.205945c0-1.403747 1.185659-2.546403 2.643672-2.546403h381.435167m0-22.470187H321.556306c-13.872622 0-25.113859 11.201305-25.11386 25.01659v469.538452c0 13.815285 11.241237 25.01659 25.11386 25.01659H702.992497c13.869551 0 25.114883-11.201305 25.114883-25.01659V357.205945c0-13.815285-11.246356-25.01659-25.115907-25.01659z" fill="#4E6DC4" /><path d="M540.954453 731.967428l-6.096213-0.010239-9.610188 0.056313-129.898283-0.232421 0.010239-6.254916s-2.756299-34.945206 48.716463-43.797719c0 0 39.179996-5.21772 41.942439-15.984897 0 0 1.49692-1.195898 0.415697-13.708801-2.303742-26.641496-19.710816-39.206617-26.743884-49.403491-7.033068-10.197898-7.599277-21.950054-7.599277-21.950053 0.005119-2.936503 1.237877-4.011583 3.286672-5.893484 2.531045-2.329339 1.777465-4.810213 1.29931-7.436479-1.819444-9.972643-1.952549-25.989281-0.189419-36.018238 0.41365-11.946694 11.398915-21.524117 11.398916-21.524118 2.061081-1.741629 4.126258-3.659366 5.575055-5.960036 0.405459-0.640952 0.778153-1.329003 0.998288-2.05801 0.831395-2.748108-1.961764-4.773353-1.395555-7.697569 0.511943-2.636505 5.032396-2.758347 7.76617-2.897596 6.157646-0.312285 12.347033-0.543683 18.493417-0.061433 46.003168 3.609196 61.099333 20.573952 61.099333 20.573952 3.574384 4.295199 5.9242 9.544659 7.33409 14.923128 0.422865 1.6075 0.784296 3.249812 0.978835 4.902363 1.419105 8.242277 1.398627 16.835746 0.937878 25.161982-0.220135 3.969603-0.688051 7.87675-1.277808 11.804374-0.309213 2.054938-0.155631 3.96858 1.215351 5.613963 1.146752 1.376102 2.457325 2.339578 3.017391 4.146736 0.263139 0.844705 0.329691 1.756987 0.327643 2.636505 0 0-0.608188 11.750108-7.677092 21.922408s-24.522054 22.674964-26.919993 49.30827c-1.126274 12.508807 0.367575 13.709824 0.367575 13.709824 2.722511 10.777417 41.884077 16.135409 41.884077 16.135409 52.015422 9.742269 48.557762 43.971779 48.557761 43.971779l-0.011263 6.253892-34.256131-0.061433 5.397923-0.063481-4.609531-0.009215-9.55285-0.016382-45.183036-0.080887z" fill="#4E6DC4" /><path d="M416.159214 183.617451h192.231398v102.621978H416.159214z" fill="#FFFFFF" /><path d="M608.388564 297.471451H416.160238c-6.204745 0-11.235094-5.025229-11.235094-11.235093V183.615403c0-6.209864 5.030349-11.235094 11.235094-11.235094h192.228326c6.204745 0 11.235094 5.025229 11.235094 11.235094v102.619931c0 6.210888-5.030349 11.236118-11.235094 11.236117z m-180.992208-22.471211H597.153471v-80.149743H427.396356v80.149743z" fill="#4E6DC4" /><path d="M460.564097 78.65999h103.420609v126.84301H460.564097z" fill="#FFFFFF" /><path d="M563.98573 216.740141H460.564097c-6.204745 0-11.235094-5.025229-11.235094-11.235094V78.657942c0-6.209864 5.030349-11.235094 11.235094-11.235093h103.421633c6.204745 0 11.235094 5.025229 11.235093 11.235093v126.846082c0 6.210888-5.031372 11.236118-11.235093 11.236117z m-92.18654-22.471211h80.950422V89.893036H471.79919v104.375894z" fill="#4E6DC4" /></svg>